HIERARCHY
ROOT root
{
	OFFSET	0	13.1	24.9
	CHANNELS 6  Xposition Yposition Zposition Xrotation Yrotation Zrotation
	JOINT spine_1
	{
		OFFSET	0	9.99999	0
		CHANNELS 3  Xrotation Yrotation Zrotation
		JOINT spine_2
		{
			OFFSET	0	112	-10
			CHANNELS 3  Xrotation Yrotation Zrotation
			JOINT spine_3
			{
				OFFSET	0	206.5	19.3
				CHANNELS 3  Xrotation Yrotation Zrotation
				JOINT spine_4
				{
					OFFSET	0	110.4	14.6
					CHANNELS 3  Xrotation Yrotation Zrotation
					JOINT neck_1
					{
						OFFSET	0	71.8	-50.3
						CHANNELS 3  Xrotation Yrotation Zrotation
						JOINT neck_2
						{
							OFFSET	0	86.2	-25.8
							CHANNELS 3  Xrotation Yrotation Zrotation
							JOINT head_ee
							{
								OFFSET	0	179.8	-8.7
								CHANNELS 3  Xrotation Yrotation Zrotation
								End Site
								{
									OFFSET	1	0	0
								}
							}
						}
					}
					JOINT left_clavicle
					{
						OFFSET	-43.2	22.4	-70.8
						CHANNELS 3  Xrotation Yrotation Zrotation
						JOINT left_shoulder
						{
							OFFSET	-93.9	-5.79999	48.7
							CHANNELS 3  Xrotation Yrotation Zrotation
							JOINT left_elbow
							{
								OFFSET	-291.4	-30.8	15.2
								CHANNELS 3  Xrotation Yrotation Zrotation
								JOINT left_lowarm_twist
								{
									OFFSET	-110.7	-3.89999	13.6
									CHANNELS 3  Xrotation Yrotation Zrotation
									JOINT left_hand
									{
										OFFSET	-110.7	-3.89999	13.6
										CHANNELS 3  Xrotation Yrotation Zrotation
										JOINT left_ee
										{
											OFFSET	-80.8	-5.10001	12.1
											CHANNELS 3  Xrotation Yrotation Zrotation
											End Site
											{
												OFFSET	1	0	0
											}
										}
									}
								}
							}
						}
					}
					JOINT right_clavicle
					{
						OFFSET	43.2	22.4	-70.8
						CHANNELS 3  Xrotation Yrotation Zrotation
						JOINT right_shoulder
						{
							OFFSET	93.9	-5.79999	48.7
							CHANNELS 3  Xrotation Yrotation Zrotation
							JOINT right_elbow
							{
								OFFSET	291.4	-30.8	15.2
								CHANNELS 3  Xrotation Yrotation Zrotation
								JOINT right_lowarm_twist
								{
									OFFSET	110.7	-3.89999	13.6
									CHANNELS 3  Xrotation Yrotation Zrotation
									JOINT right_hand
									{
										OFFSET	110.7	-3.89999	13.6
										CHANNELS 3  Xrotation Yrotation Zrotation
										JOINT right_ee
										{
											OFFSET	80.8	-5.10001	12.1
											CHANNELS 3  Xrotation Yrotation Zrotation
											End Site
											{
												OFFSET	1	0	0
											}
										}
									}
								}
							}
						}
					}
				}
			}
		}
	}
	JOINT left_hip
	{
		OFFSET	-82.8	-127.5	0.300001
		CHANNELS 3  Xrotation Yrotation Zrotation
		JOINT left_knee
		{
			OFFSET	-28.2	-396.7	2.2
			CHANNELS 3  Xrotation Yrotation Zrotation
			JOINT left_ankle
			{
				OFFSET	-11.7	-411.3	35.4
				CHANNELS 3  Xrotation Yrotation Zrotation
				JOINT left_toes
				{
					OFFSET	0	-60	-88.6
					CHANNELS 3  Xrotation Yrotation Zrotation
					JOINT left_foot_ee
					{
						OFFSET	-22.5	-16.5	-42.2
						CHANNELS 3  Xrotation Yrotation Zrotation
						End Site
						{
							OFFSET	1	0	0
						}
					}
				}
			}
		}
	}
	JOINT right_hip
	{
		OFFSET	82.8	-127.5	0.300001
		CHANNELS 3  Xrotation Yrotation Zrotation
		JOINT right_knee
		{
			OFFSET	28.2	-396.7	2.2
			CHANNELS 3  Xrotation Yrotation Zrotation
			JOINT right_ankle
			{
				OFFSET	11.7	-411.3	35.4
				CHANNELS 3  Xrotation Yrotation Zrotation
				JOINT right_toes
				{
					OFFSET	0	-60	-88.6
					CHANNELS 3  Xrotation Yrotation Zrotation
					JOINT right_foot_ee
					{
						OFFSET	22.5	-16.5	-42.2
						CHANNELS 3  Xrotation Yrotation Zrotation
						End Site
						{
							OFFSET	1	0	0
						}
					}
				}
			}
		}
	}
}
MOTION
Frames: 14
Frame Time: 0.02
3574.42 741.953 -1474.73 12.0558359421 80.5703716952 -11.1697045184 -0.437421 0.0899211 0.32055 -0.437367 0.0693415 0.325622 -0.436929 -0.0031837 0.332908 -0.43708 0.0494325 0.329233 -1.14242 16.8507 2.97307 -0.654617 27.9832 5.07949 -0.0 0.0 -0.0 1.73643 23.4009 5.08923 -1.21097 -42.7685 68.3996 2.65996 -52.7953 1.32046 -9.83397 -0.448424 1.17304 1.37726 3.67572 10.6987 -0.0 0.0 -0.0 10.6634 -2.71478 -20.8469 -8.06332 -35.069 -64.3521 1.03492 27.1423 -0.249829 -45.1244 3.51188 -4.40393 9.74126 18.5561 -74.1081 0.0 0.0 0.0 -14.6168 20.1662 -1.62253 7.20825 -0.363188 -1.04534 32.6604 -22.9606 -4.74922 -28.38 0.0 0.0 -0.0 0.0 -0.0 -0.0929779 19.3391 -5.06269 -0.561166 -0.0226995 -0.0831253 41.7528 -21.1632 5.21704 -40.3071 0.0 0.0 0.0 0.0 0.0 
3574.42 741.953 -1474.73 11.3093523406 79.9507146851 -10.4123160571 -0.437421 0.0899211 0.32055 -0.437367 0.0693415 0.325622 -0.436929 -0.0031837 0.332908 -0.43708 0.0494325 0.329233 -1.14242 16.8507 2.97307 -0.654617 27.9832 5.07949 -0.0 0.0 -0.0 1.73643 23.4009 5.08923 -1.21097 -42.7685 68.3996 2.65996 -52.7953 1.32046 -9.83397 -0.448424 1.17304 1.37726 3.67572 10.6987 -0.0 0.0 -0.0 10.6634 -2.71478 -20.8469 -8.06332 -35.069 -64.3521 1.03492 27.1423 -0.249829 -45.1244 3.51188 -4.40393 9.74126 18.5561 -74.1081 0.0 0.0 0.0 -14.6168 20.1662 -1.62253 7.20825 -0.363188 -1.04534 32.6604 -22.9606 -4.74922 -28.38 0.0 0.0 -0.0 0.0 -0.0 -0.0929779 19.3391 -5.06269 -0.561166 -0.0226995 -0.0831253 41.7528 -21.1632 5.21704 -40.3071 0.0 0.0 0.0 0.0 0.0 
3574.42 741.953 -1474.73 10.4453201843 79.1202278308 -9.53369349452 -0.437421 0.0899211 0.32055 -0.437367 0.0693415 0.325622 -0.436929 -0.0031837 0.332908 -0.43708 0.0494325 0.329233 -1.14242 16.8507 2.97307 -0.654617 27.9832 5.07949 -0.0 0.0 -0.0 1.73643 23.4009 5.08923 -1.21097 -42.7685 68.3996 2.65996 -52.7953 1.32046 -9.83397 -0.448424 1.17304 1.37726 3.67572 10.6987 -0.0 0.0 -0.0 10.6634 -2.71478 -20.8469 -8.06332 -35.069 -64.3521 1.03492 27.1423 -0.249829 -45.1244 3.51188 -4.40393 9.74126 18.5561 -74.1081 0.0 0.0 0.0 -14.6168 20.1662 -1.62253 7.20825 -0.363188 -1.04534 32.6604 -22.9606 -4.74922 -28.38 0.0 0.0 -0.0 0.0 -0.0 -0.0929779 19.3391 -5.06269 -0.561166 -0.0226995 -0.0831253 41.7528 -21.1632 5.21704 -40.3071 0.0 0.0 0.0 0.0 0.0 
3574.42 741.953 -1474.73 9.72092201686 78.3072407568 -8.79502935952 -0.437421 0.0899211 0.32055 -0.437367 0.0693415 0.325622 -0.436929 -0.0031837 0.332908 -0.43708 0.0494325 0.329233 -1.14242 16.8507 2.97307 -0.654617 27.9832 5.07949 -0.0 0.0 -0.0 1.73643 23.4009 5.08923 -1.21097 -42.7685 68.3996 2.65996 -52.7953 1.32046 -9.83397 -0.448424 1.17304 1.37726 3.67572 10.6987 -0.0 0.0 -0.0 10.6634 -2.71478 -20.8469 -8.06332 -35.069 -64.3521 1.03492 27.1423 -0.249829 -45.1244 3.51188 -4.40393 9.74126 18.5561 -74.1081 0.0 0.0 0.0 -14.6168 20.1662 -1.62253 7.20825 -0.363188 -1.04534 32.6604 -22.9606 -4.74922 -28.38 0.0 0.0 -0.0 0.0 -0.0 -0.0929779 19.3391 -5.06269 -0.561166 -0.0226995 -0.0831253 41.7528 -21.1632 5.21704 -40.3071 0.0 0.0 0.0 0.0 0.0 
3574.42 741.953 -1474.73 9.02494669683 77.3997491891 -8.08313900989 -0.437421 0.0899211 0.32055 -0.437367 0.0693415 0.325622 -0.436929 -0.0031837 0.332908 -0.43708 0.0494325 0.329233 -1.14242 16.8507 2.97307 -0.654617 27.9832 5.07949 -0.0 0.0 -0.0 1.73643 23.4009 5.08923 -1.21097 -42.7685 68.3996 2.65996 -52.7953 1.32046 -9.83397 -0.448424 1.17304 1.37726 3.67572 10.6987 -0.0 0.0 -0.0 10.6634 -2.71478 -20.8469 -8.06332 -35.069 -64.3521 1.03492 27.1423 -0.249829 -45.1244 3.51188 -4.40393 9.74126 18.5561 -74.1081 0.0 0.0 0.0 -14.6168 20.1662 -1.62253 7.20825 -0.363188 -1.04534 32.6604 -22.9606 -4.74922 -28.38 0.0 0.0 -0.0 0.0 -0.0 -0.0929779 19.3391 -5.06269 -0.561166 -0.0226995 -0.0831253 41.7528 -21.1632 5.21704 -40.3071 0.0 0.0 0.0 0.0 0.0 
3574.42 741.953 -1474.73 8.36496344831 76.3953073335 -7.40554105258 -0.437421 0.0899211 0.32055 -0.437367 0.0693415 0.325622 -0.436929 -0.0031837 0.332908 -0.43708 0.0494325 0.329233 -1.14242 16.8507 2.97307 -0.654617 27.9832 5.07949 -0.0 0.0 -0.0 1.73643 23.4009 5.08923 -1.21097 -42.7685 68.3996 2.65996 -52.7953 1.32046 -9.83397 -0.448424 1.17304 1.37726 3.67572 10.6987 -0.0 0.0 -0.0 10.6634 -2.71478 -20.8469 -8.06332 -35.069 -64.3521 1.03492 27.1423 -0.249829 -45.1244 3.51188 -4.40393 9.74126 18.5561 -74.1081 0.0 0.0 0.0 -14.6168 20.1662 -1.62253 7.20825 -0.363188 -1.04534 32.6604 -22.9606 -4.74922 -28.38 0.0 0.0 -0.0 0.0 -0.0 -0.0929779 19.3391 -5.06269 -0.561166 -0.0226995 -0.0831253 41.7528 -21.1632 5.21704 -40.3071 0.0 0.0 0.0 0.0 0.0 
3574.42 741.953 -1474.73 7.76699541198 75.3326417414 -6.78892716946 -0.437421 0.0899211 0.32055 -0.437367 0.0693415 0.325622 -0.436929 -0.0031837 0.332908 -0.43708 0.0494325 0.329233 -1.14242 16.8507 2.97307 -0.654617 27.9832 5.07949 -0.0 0.0 -0.0 1.73643 23.4009 5.08923 -1.21097 -42.7685 68.3996 2.65996 -52.7953 1.32046 -9.83397 -0.448424 1.17304 1.37726 3.67572 10.6987 -0.0 0.0 -0.0 10.6634 -2.71478 -20.8469 -8.06332 -35.069 -64.3521 1.03492 27.1423 -0.249829 -45.1244 3.51188 -4.40393 9.74126 18.5561 -74.1081 0.0 0.0 0.0 -14.6168 20.1662 -1.62253 7.20825 -0.363188 -1.04534 32.6604 -22.9606 -4.74922 -28.38 0.0 0.0 -0.0 0.0 -0.0 -0.0929779 19.3391 -5.06269 -0.561166 -0.0226995 -0.0831253 41.7528 -21.1632 5.21704 -40.3071 0.0 0.0 0.0 0.0 0.0 
3574.42 741.953 -1474.73 7.06074602971 73.836125016 -6.05638397556 -0.437421 0.0899211 0.32055 -0.437367 0.0693415 0.325622 -0.436929 -0.0031837 0.332908 -0.43708 0.0494325 0.329233 -1.14242 16.8507 2.97307 -0.654617 27.9832 5.07949 -0.0 0.0 -0.0 1.73643 23.4009 5.08923 -1.21097 -42.7685 68.3996 2.65996 -52.7953 1.32046 -9.83397 -0.448424 1.17304 1.37726 3.67572 10.6987 -0.0 0.0 -0.0 10.6634 -2.71478 -20.8469 -8.06332 -35.069 -64.3521 1.03492 27.1423 -0.249829 -45.1244 3.51188 -4.40393 9.74126 18.5561 -74.1081 0.0 0.0 0.0 -14.6168 20.1662 -1.62253 7.20825 -0.363188 -1.04534 32.6604 -22.9606 -4.74922 -28.38 0.0 0.0 -0.0 0.0 -0.0 -0.0929779 19.3391 -5.06269 -0.561166 -0.0226995 -0.0831253 41.7528 -21.1632 5.21704 -40.3071 0.0 0.0 0.0 0.0 0.0 
3574.42 741.953 -1474.73 6.40949518229 72.1494699281 -5.37542460752 -0.437421 0.0899211 0.32055 -0.437367 0.0693415 0.325622 -0.436929 -0.0031837 0.332908 -0.43708 0.0494325 0.329233 -1.14242 16.8507 2.97307 -0.654617 27.9832 5.07949 -0.0 0.0 -0.0 1.73643 23.4009 5.08923 -1.21097 -42.7685 68.3996 2.65996 -52.7953 1.32046 -9.83397 -0.448424 1.17304 1.37726 3.67572 10.6987 -0.0 0.0 -0.0 10.6634 -2.71478 -20.8469 -8.06332 -35.069 -64.3521 1.03492 27.1423 -0.249829 -45.1244 3.51188 -4.40393 9.74126 18.5561 -74.1081 0.0 0.0 0.0 -14.6168 20.1662 -1.62253 7.20825 -0.363188 -1.04534 32.6604 -22.9606 -4.74922 -28.38 0.0 0.0 -0.0 0.0 -0.0 -0.0929779 19.3391 -5.06269 -0.561166 -0.0226995 -0.0831253 41.7528 -21.1632 5.21704 -40.3071 0.0 0.0 0.0 0.0 0.0 
3562.61684722 738.68 -1480.61545533 7.26553276384 71.6643426674 -6.13360368842 -0.337524 -0.0993537 0.374172 -0.337454 -0.122962 0.367092 -0.338231 -0.199335 0.331876 -0.338356 -0.14442 0.359192 -0.0406794 16.3683 2.0543 0.51859 27.5955 3.82795 -0.0 0.0 -0.0 1.66219 23.4502 4.99016 -1.75597 -43.1191 68.8907 2.5559 -51.6893 1.23819 -11.6472 -0.552807 1.38019 1.36373 4.21908 10.8193 -0.0 0.0 -0.0 10.7666 -2.94051 -21.0397 -7.0149 -36.5739 -63.8774 1.01202 26.6252 -0.239472 -44.5776 3.45061 -4.3697 9.62756 17.8236 -73.462 0.0 0.0 0.0 -15.5829 18.7397 -2.30969 6.38444 -0.315042 -0.928244 33.1635 -24.3682 -4.87114 -28.4651 0.0 0.0 -0.0 0.0 -0.0 0.273688 20.3415 -5.46099 -4.60066 -0.161895 -0.687314 41.815 -20.427 5.2035 -40.1876 0.0 0.0 0.0 0.0 0.0 
3540.00639659 740.888 -1495.20209077 8.51138028146 76.4145468357 -7.45357064356 -0.395518 0.217762 0.104921 -0.395536 0.210645 0.118565 -0.395096 0.179912 0.161433 -0.395075 0.203149 0.130993 -2.00455 13.9855 2.17716 -1.71438 23.5917 4.08369 -0.0 0.0 -0.0 1.86067 22.638 5.21782 -2.14798 -44.6839 69.8412 1.94409 -43.9169 0.783888 -13.5359 -0.668471 1.59239 1.88163 4.08088 14.2699 -0.0 0.0 -0.0 11.3164 -2.46343 -22.2114 -4.50242 -36.2824 -61.9254 1.0778 28.0974 -0.269705 -41.6993 3.13367 -4.18002 9.95271 21.4205 -71.7717 0.0 0.0 0.0 -8.79341 18.6175 -5.47048 -0.392263 0.0159534 0.0580828 32.9066 -27.4651 -5.00576 -31.1916 0.0 0.0 -0.0 0.0 -0.0 -3.02036 21.4072 -5.51292 -4.27597 -0.152286 -0.63841 39.9526 -17.3477 4.96822 -38.7173 0.0 0.0 0.0 0.0 0.0 
3529.13392262 737.296 -1503.42303915 12.5638974373 79.455559025 -10.1887934102 -0.469616 0.0774362 -0.534504 -0.469464 0.111291 -0.528494 -0.47044 0.223931 -0.491474 -0.470748 0.143503 -0.520671 -3.85181 12.7964 3.6902 -3.69754 20.5871 5.7888 -0.0 0.0 -0.0 3.61694 21.4431 7.67406 -5.61125 -44.2773 67.7526 1.49532 -36.5264 0.493491 -14.1 -0.704371 1.65503 1.74912 0.630195 12.0195 -0.0 0.0 -0.0 11.4876 -2.17951 -22.5923 -2.87395 -34.2972 -61.2615 1.08639 28.2869 -0.273767 -39.6045 2.9092 -4.03211 9.85727 23.2266 -66.7914 0.0 0.0 0.0 -3.28207 14.3661 -9.19839 -13.3166 0.315384 2.01469 38.2067 -19.6184 -5.17244 -34.2322 0.0 0.0 -0.0 0.0 -0.0 -3.71972 21.6546 -7.55267 -3.03828 -0.113118 -0.452503 40.4905 -15.7207 4.98789 -40.2344 0.0 0.0 0.0 0.0 0.0 
3498.05067247 736.579 -1508.42006846 79.1270985216 87.3204355094 -75.3089481058 -0.530072 0.182728 -1.29077 -0.529184 0.264486 -1.27653 -0.534767 0.538077 -1.18743 -0.53657 0.343809 -1.25749 -5.70621 10.9052 2.58441 -5.65304 18.2349 4.61345 -0.0 0.0 -0.0 4.4497 23.3995 8.84481 -12.9603 -43.3812 63.7255 1.04609 -27.3926 0.254945 -14.9923 -0.762414 1.75338 2.09139 -0.695166 13.8379 -0.0 0.0 -0.0 11.7241 -1.06418 -23.185 -0.0703054 -30.6153 -61.814 1.18211 30.3513 -0.320643 -37.9063 2.7313 -3.90627 9.84274 23.1339 -66.7498 0.0 0.0 0.0 5.08952 8.25642 -13.0257 -27.5168 0.131138 4.18033 39.0609 -13.9746 -5.05005 -36.8097 0.0 0.0 -0.0 0.0 -0.0 -5.40678 20.0741 -9.83916 -0.876445 -0.0350949 -0.129922 39.8735 -13.3356 4.89841 -40.1699 0.0 0.0 0.0 0.0 0.0 
3496.19621861 733.212 -1507.63093351 144.921996238 86.6105401181 -141.022364044 -0.391089 0.235464 -1.35903 -0.390119 0.321458 -1.34129 -0.397369 0.604918 -1.23956 -0.399288 0.401578 -1.31953 -6.42996 10.7587 2.96798 -6.39723 17.7852 5.07101 -0.0 0.0 -0.0 4.40986 24.0488 8.77584 -14.142 -42.8675 62.9578 1.02572 -26.935 0.245643 -14.9988 -0.762839 1.75409 1.93517 -0.416278 12.8748 -0.0 0.0 -0.0 11.7833 -0.541517 -23.3536 2.43071 -29.7881 -62.0134 1.25422 31.8516 -0.357899 -37.0892 2.64706 -3.84386 9.80605 23.1739 -66.1659 0.0 0.0 0.0 6.97345 6.60448 -12.999 -29.9353 0.0465392 4.54182 39.6308 -7.43471 -4.94084 -36.3015 0.0 0.0 -0.0 0.0 -0.0 -5.26696 18.5232 -10.6686 0.0978988 0.00404356 0.0144793 39.6985 -12.6616 4.87475 -40.0927 0.0 0.0 0.0 0.0 0.0 
